Tom & Jerry.Meet.Sherlock Holmes.2010 [multi.language] AAC. H264_MarGelaTu.mp4 - http://www.imdb.com/title/tt1722638/

     Source: DVD5      
Format : MPEG-4
      Format profile : Base Media / Version 2
      Codec ID : mp42
      File size : 762 MiB
      Duration : 47mn 47s
      Overall bit rate : 2 231 Kbps
     
   Video #1
      ID : 1
      Format : AVC
      Format/Info : Advanced Video Codec
      Format profile : High@L3.1
      Format settings, CABAC : Yes
      Format settings, ReFrames : 8 frames
      Codec ID : avc1
      Codec ID/Info : Advanced Video Coding
      Duration : 47mn 47s
      Bit rate mode : Variable
      Bit rate : 1 259 Kbps
      Width : 720 pixels
      Height : 576 pixels
      Display aspect ratio : 16:9
      Frame rate mode : Constant
      Frame rate : 25.000 fps
      Standard : PAL
      Resolution : 24 bits
      Colorimetry : 4:2:0
      Scan type : Progressive
      Bits/(Pixel*Frame) : 0.121
      Stream size : 430 MiB (56%)
      Writing library : x264 core 79
   
   Audio #2
      ID : 2
      Format : AAC
      Format/Info : Advanced Audio Codec
      Format version : Version 4
      Format profile : LC
      Format settings, SBR : No
      Codec ID : 40
      Duration : 47mn 47s
      Bit rate mode : Variable
      Bit rate : 160 Kbps
      Maximum bit rate : 219 Kbps
      Channel(s) : 2 channels
      Channel positions : L R
      Sampling rate : 48.0 KHz
      Resolution : 16 bits
      Stream size : 54.7 MiB (7%)
      Language : English, Nederland, French, German, Italian, Russian,
     